<svg xmlns="http://www.w3.org/2000/svg" data-name="Layer 1" viewBox="0 0 110 137.5" x="0px" y="0px"><path d="M63.172,100.245H41.334a1,1,0,0,1-.992-1.134L47.88,44.394a1,1,0,0,1,1.632-.627L52.9,46.58l2-2.427a1,1,0,0,1,1.762.5l7.5,54.457a1,1,0,0,1-.992,1.134Zm-20.694-2h19.55L55,47.184l-1.189,1.44a1,1,0,0,1-1.407.135l-2.792-2.3Z"/><path d="M102,100.247H8a1,1,0,0,1,0-2h94a1,1,0,0,1,0,2Z"/><path d="M29.024,54.92A11.472,11.472,0,0,0,25.184,45l16.54-6.4-.03.04a2.866,2.866,0,0,0-.66,2.15,2.822,2.822,0,0,0,1.08,2.06l5.77,4.77Z"/><path d="M62.774,40.89a3.012,3.012,0,0,0-.39-4.25L57.4,32.53l15.77-6.1.7,4.69a2.832,2.832,0,0,0,.5,1.3l2.64,3.93L61.6,42.31Z"/><path d="M98.164,39.05a.992.992,0,0,1-.63,1.08l-11.61,4.5a1.133,1.133,0,0,1-.36.06,1,1,0,0,1-.83-.44l-8.72-12.98a.863.863,0,0,1-.16-.41l-2.29-15.47a.992.992,0,0,1,.63-1.08L85.8,9.82a.994.994,0,0,1,1.19.37l8.72,12.98a.95.95,0,0,1,.16.41Z"/><path d="M20.294,52.59a2.856,2.856,0,0,1-.05,2.24,2.912,2.912,0,0,1-3.86,1.49,2.869,2.869,0,0,1-1.55-1.62,2.907,2.907,0,0,1,1.68-3.78,2.772,2.772,0,0,1,1.06-.2,2.915,2.915,0,0,1,2.72,1.87Z"/><path d="M26.454,50.21a9.421,9.421,0,0,0-2.96-4.02,9.53,9.53,0,1,0-5.92,16.99A9.358,9.358,0,0,0,21,62.53a9.516,9.516,0,0,0,5.45-12.32Zm-4.38,5.43a4.874,4.874,0,0,1-2.73,2.6,4.824,4.824,0,0,1-3.77-.09,4.945,4.945,0,0,1-2.52-6.5,4.932,4.932,0,0,1,9.02,3.99Z"/><path d="M61.474,38.86a.967.967,0,0,1-.22.73l-7.44,9.03a1,1,0,0,1-1.41.13l-9.02-7.44a.938.938,0,0,1-.36-.67.991.991,0,0,1,.22-.74l7.44-9.02a1.038,1.038,0,0,1,.68-.36,1.072,1.072,0,0,1,.73.22l9.02,7.44A.959.959,0,0,1,61.474,38.86Z"/><path d="M22.165,88.749h-9.2a1,1,0,0,1-1-1,5.4,5.4,0,0,1,5.4-5.4h.38a5.416,5.416,0,0,1,5.414,5.4A1,1,0,0,1,22.165,88.749Zm-8.05-2h6.9a3.419,3.419,0,0,0-3.263-2.4h-.38a3.4,3.4,0,0,0-3.256,2.4Z"/><path d="M98.824,91.17v8.08a1,1,0,0,1-1,1h-12.2a1,1,0,0,1-1-1V91.17a7.1,7.1,0,1,1,14.2,0Z"/><path d="M24.944,87.75V98.48a1,1,0,0,1-1,1H11.194a1,1,0,0,1-1-1V87.75a1,1,0,0,1,1-1h12.75A1,1,0,0,1,24.944,87.75Z"/><path d="M91.719,86.07a1,1,0,0,1-1-1V41.308a1,1,0,1,1,2,0V85.07A1,1,0,0,1,91.719,86.07Z"/><path d="M17.371,84.345a1,1,0,0,1-1-1V62.179a1,1,0,0,1,2,0V83.345A1,1,0,0,1,17.371,84.345Z"/><text x="0" y="125" fill="#000000" font-size="5px" font-weight="bold" font-family="'Helvetica Neue', Helvetica, Arial-Unicode, Arial, Sans-serif">Created by Soremba</text><text x="0" y="130" fill="#000000" font-size="5px" font-weight="bold" font-family="'Helvetica Neue', Helvetica, Arial-Unicode, Arial, Sans-serif">from the Noun Project</text></svg>